HIERARCHY
ROOT Hips
{
	OFFSET -341.196167 -577.024780 88.986252
	CHANNELS 6 Xposition Yposition Zposition Zrotation Yrotation Xrotation
	JOINT Spine
	{
		OFFSET 0.000000 2.080078 8.814247
		CHANNELS 6 Xposition Yposition Zposition Zrotation Yrotation Xrotation
		JOINT Spine1
		{
			OFFSET 0.000000 0.000000 8.844139
			CHANNELS 6 Xposition Yposition Zposition Zrotation Yrotation Xrotation
			JOINT Spine2
			{
				OFFSET 0.000000 0.000000 11.682266
				CHANNELS 6 Xposition Yposition Zposition Zrotation Yrotation Xrotation
				JOINT Spine3
				{
					OFFSET 0.000000 0.000000 11.746704
					CHANNELS 6 Xposition Yposition Zposition Zrotation Yrotation Xrotation
					JOINT Neck
					{
						OFFSET 0.000000 0.000000 17.658264
						CHANNELS 6 Xposition Yposition Zposition Zrotation Yrotation Xrotation
						JOINT Neck1
						{
							OFFSET 0.000000 0.000000 5.101517
							CHANNELS 6 Xposition Yposition Zposition Zrotation Yrotation Xrotation
							JOINT Head
							{
								OFFSET 0.000000 0.000000 5.101517
								CHANNELS 6 Xposition Yposition Zposition Zrotation Yrotation Xrotation
								JOINT HeadEnd
								{
									OFFSET 0.000000 0.000000 11.655090
									CHANNELS 6 Xposition Yposition Zposition Zrotation Yrotation Xrotation
									End Site
									{
										OFFSET 0.000000 0.000000 0.100006
									}
								}
							}
						}
					}
					JOINT RightShoulder
					{
						OFFSET -2.625397 0.000000 11.175217
						CHANNELS 6 Xposition Yposition Zposition Zrotation Yrotation Xrotation
						JOINT RightArm
						{
							OFFSET 0.000000 0.000000 10.434723
							CHANNELS 6 Xposition Yposition Zposition Zrotation Yrotation Xrotation
							JOINT RightForeArm
							{
								OFFSET 0.000000 0.000000 29.628418
								CHANNELS 6 Xposition Yposition Zposition Zrotation Yrotation Xrotation
								JOINT RightHand
								{
									OFFSET 0.000000 0.000000 22.857605
									CHANNELS 6 Xposition Yposition Zposition Zrotation Yrotation Xrotation
									JOINT RightHandThumb1
									{
										OFFSET -2.867310 -2.944275 3.959564
										CHANNELS 6 Xposition Yposition Zposition Zrotation Yrotation Xrotation
										JOINT RightHandThumb2
										{
											OFFSET 0.000000 0.000000 3.350403
											CHANNELS 6 Xposition Yposition Zposition Zrotation Yrotation Xrotation
											JOINT RightHandThumb3
											{
												OFFSET 0.000000 0.000000 3.756516
												CHANNELS 6 Xposition Yposition Zposition Zrotation Yrotation Xrotation
												JOINT RightHandThumb4
												{
													OFFSET 0.000000 0.000000 3.147339
													CHANNELS 6 Xposition Yposition Zposition Zrotation Yrotation Xrotation
													End Site
													{
														OFFSET 0.000000 0.000000 0.100006
													}
												}
											}
										}
									}
									JOINT RightHandIndex1
									{
										OFFSET -0.086761 -2.345276 10.030899
										CHANNELS 6 Xposition Yposition Zposition Zrotation Yrotation Xrotation
										JOINT RightHandIndex2
										{
											OFFSET 0.000000 0.000000 4.061096
											CHANNELS 6 Xposition Yposition Zposition Zrotation Yrotation Xrotation
											JOINT RightHandIndex3
											{
												OFFSET 0.000000 0.000000 3.248871
												CHANNELS 6 Xposition Yposition Zposition Zrotation Yrotation Xrotation
												JOINT RightHandIndex4
												{
													OFFSET 0.000000 0.000000 2.639709
													CHANNELS 6 Xposition Yposition Zposition Zrotation Yrotation Xrotation
													End Site
													{
														OFFSET 0.000000 0.000000 0.100006
													}
												}
											}
										}
									}
									JOINT RightHandMiddle1
									{
										OFFSET 0.104095 -0.006775 9.502945
										CHANNELS 6 Xposition Yposition Zposition Zrotation Yrotation Xrotation
										JOINT RightHandMiddle2
										{
											OFFSET 0.000000 0.000000 4.568726
											CHANNELS 6 Xposition Yposition Zposition Zrotation Yrotation Xrotation
											JOINT RightHandMiddle3
											{
												OFFSET 0.000000 0.000000 3.654984
												CHANNELS 6 Xposition Yposition Zposition Zrotation Yrotation Xrotation
												JOINT RightHandMiddle4
												{
													OFFSET 0.000000 0.000000 2.741241
													CHANNELS 6 Xposition Yposition Zposition Zrotation Yrotation Xrotation
													End Site
													{
														OFFSET 0.000000 0.000000 0.100006
													}
												}
											}
										}
									}
									JOINT RightHandRing1
									{
										OFFSET 0.086761 2.267456 8.921707
										CHANNELS 6 Xposition Yposition Zposition Zrotation Yrotation Xrotation
										JOINT RightHandRing2
										{
											OFFSET 0.000000 0.000000 4.061096
											CHANNELS 6 Xposition Yposition Zposition Zrotation Yrotation Xrotation
											JOINT RightHandRing3
											{
												OFFSET 0.000000 0.000000 3.654984
												CHANNELS 6 Xposition Yposition Zposition Zrotation Yrotation Xrotation
												JOINT RightHandRing4
												{
													OFFSET 0.000000 0.000000 2.741241
													CHANNELS 6 Xposition Yposition Zposition Zrotation Yrotation Xrotation
													End Site
													{
														OFFSET 0.000000 0.000000 0.100006
													}
												}
											}
										}
									}
									JOINT RightHandPinky1
									{
										OFFSET -0.173492 4.467224 7.976990
										CHANNELS 6 Xposition Yposition Zposition Zrotation Yrotation Xrotation
										JOINT RightHandPinky2
										{
											OFFSET 0.000000 0.000000 3.350403
											CHANNELS 6 Xposition Yposition Zposition Zrotation Yrotation Xrotation
											JOINT RightHandPinky3
											{
												OFFSET 0.000000 0.000000 2.842758
												CHANNELS 6 Xposition Yposition Zposition Zrotation Yrotation Xrotation
												JOINT RightHandPinky4
												{
													OFFSET 0.000000 0.000000 2.639709
													CHANNELS 6 Xposition Yposition Zposition Zrotation Yrotation Xrotation
													End Site
													{
														OFFSET 0.000000 0.000000 0.100006
													}
												}
											}
										}
									}
									JOINT RightForeArmEnd
									{
										OFFSET 0.000000 0.000000 0.000000
										CHANNELS 6 Xposition Yposition Zposition Zrotation Yrotation Xrotation
										End Site
										{
											OFFSET 0.000000 0.000000 0.100006
										}
									}
								}
								JOINT RightArmEnd
								{
									OFFSET 0.000000 0.000000 0.000000
									CHANNELS 6 Xposition Yposition Zposition Zrotation Yrotation Xrotation
									End Site
									{
										OFFSET 0.000000 0.000000 0.100006
									}
								}
							}
						}
					}
					JOINT LeftShoulder
					{
						OFFSET 2.625397 0.000000 11.175217
						CHANNELS 6 Xposition Yposition Zposition Zrotation Yrotation Xrotation
						JOINT LeftArm
						{
							OFFSET 0.000000 0.000000 10.813629
							CHANNELS 6 Xposition Yposition Zposition Zrotation Yrotation Xrotation
							JOINT LeftForeArm
							{
								OFFSET 0.000000 0.000000 28.724777
								CHANNELS 6 Xposition Yposition Zposition Zrotation Yrotation Xrotation
								JOINT LeftHand
								{
									OFFSET 0.644379 0.328857 25.716171
									CHANNELS 6 Xposition Yposition Zposition Zrotation Yrotation Xrotation
									JOINT LeftHandThumb1
									{
										OFFSET 2.867310 -2.944275 3.959564
										CHANNELS 6 Xposition Yposition Zposition Zrotation Yrotation Xrotation
										JOINT LeftHandThumb2
										{
											OFFSET 0.000000 0.000000 3.350403
											CHANNELS 6 Xposition Yposition Zposition Zrotation Yrotation Xrotation
											JOINT LeftHandThumb3
											{
												OFFSET 0.000000 0.000000 3.756516
												CHANNELS 6 Xposition Yposition Zposition Zrotation Yrotation Xrotation
												JOINT LeftHandThumb4
												{
													OFFSET 0.000000 0.000000 3.100006
													CHANNELS 6 Xposition Yposition Zposition Zrotation Yrotation Xrotation
													End Site
													{
														OFFSET 0.000000 0.000000 0.100006
													}
												}
											}
										}
									}
									JOINT LeftHandIndex1
									{
										OFFSET 0.086761 -2.345276 10.030899
										CHANNELS 6 Xposition Yposition Zposition Zrotation Yrotation Xrotation
										JOINT LeftHandIndex2
										{
											OFFSET 0.000000 0.000000 4.061096
											CHANNELS 6 Xposition Yposition Zposition Zrotation Yrotation Xrotation
											JOINT LeftHandIndex3
											{
												OFFSET 0.000000 0.000000 3.248871
												CHANNELS 6 Xposition Yposition Zposition Zrotation Yrotation Xrotation
												JOINT LeftHandIndex4
												{
													OFFSET 0.000000 0.000000 2.639709
													CHANNELS 6 Xposition Yposition Zposition Zrotation Yrotation Xrotation
													End Site
													{
														OFFSET 0.000000 0.000000 0.100006
													}
												}
											}
										}
									}
									JOINT LeftHandMiddle1
									{
										OFFSET -0.104095 -0.006775 9.502945
										CHANNELS 6 Xposition Yposition Zposition Zrotation Yrotation Xrotation
										JOINT LeftHandMiddle2
										{
											OFFSET 0.000000 0.000000 4.568726
											CHANNELS 6 Xposition Yposition Zposition Zrotation Yrotation Xrotation
											JOINT LeftHandMiddle3
											{
												OFFSET 0.000000 0.000000 3.654984
												CHANNELS 6 Xposition Yposition Zposition Zrotation Yrotation Xrotation
												JOINT LeftHandMiddle4
												{
													OFFSET 0.000000 0.000000 2.741241
													CHANNELS 6 Xposition Yposition Zposition Zrotation Yrotation Xrotation
													End Site
													{
														OFFSET 0.000000 0.000000 0.100006
													}
												}
											}
										}
									}
									JOINT LeftHandRing1
									{
										OFFSET -0.086761 2.267456 8.921707
										CHANNELS 6 Xposition Yposition Zposition Zrotation Yrotation Xrotation
										JOINT LeftHandRing2
										{
											OFFSET 0.000000 0.000000 4.061096
											CHANNELS 6 Xposition Yposition Zposition Zrotation Yrotation Xrotation
											JOINT LeftHandRing3
											{
												OFFSET 0.000000 0.000000 3.654984
												CHANNELS 6 Xposition Yposition Zposition Zrotation Yrotation Xrotation
												JOINT LeftHandRing4
												{
													OFFSET 0.000000 0.000000 2.741241
													CHANNELS 6 Xposition Yposition Zposition Zrotation Yrotation Xrotation
													End Site
													{
														OFFSET 0.000000 0.000000 0.100006
													}
												}
											}
										}
									}
									JOINT LeftHandPinky1
									{
										OFFSET 0.173492 4.467224 7.976990
										CHANNELS 6 Xposition Yposition Zposition Zrotation Yrotation Xrotation
										JOINT LeftHandPinky2
										{
											OFFSET 0.000000 0.000000 3.350403
											CHANNELS 6 Xposition Yposition Zposition Zrotation Yrotation Xrotation
											JOINT LeftHandPinky3
											{
												OFFSET 0.000000 0.000000 2.842758
												CHANNELS 6 Xposition Yposition Zposition Zrotation Yrotation Xrotation
												JOINT LeftHandPinky4
												{
													OFFSET 0.000000 0.000000 2.639709
													CHANNELS 6 Xposition Yposition Zposition Zrotation Yrotation Xrotation
													End Site
													{
														OFFSET 0.000000 0.000000 0.100006
													}
												}
											}
										}
									}
									JOINT LeftForeArmEnd
									{
										OFFSET 0.000000 0.000000 0.000000
										CHANNELS 6 Xposition Yposition Zposition Zrotation Yrotation Xrotation
										End Site
										{
											OFFSET 0.000000 0.000000 0.100006
										}
									}
								}
								JOINT LeftArmEnd
								{
									OFFSET 0.000000 0.000000 0.000000
									CHANNELS 6 Xposition Yposition Zposition Zrotation Yrotation Xrotation
									End Site
									{
										OFFSET 0.000000 0.000000 0.100006
									}
								}
							}
						}
					}
				}
			}
		}
	}
	JOINT RightUpLeg
	{
		OFFSET -11.289948 0.000000 0.000000
		CHANNELS 6 Xposition Yposition Zposition Zrotation Yrotation Xrotation
		JOINT RightLeg
		{
			OFFSET 0.000000 0.000000 -38.200329
			CHANNELS 6 Xposition Yposition Zposition Zrotation Yrotation Xrotation
			JOINT RightFoot
			{
				OFFSET 0.000000 0.000000 -39.900856
				CHANNELS 6 Xposition Yposition Zposition Zrotation Yrotation Xrotation
				JOINT RightToeBase
				{
					OFFSET 0.000000 -15.261658 0.000001
					CHANNELS 6 Xposition Yposition Zposition Zrotation Yrotation Xrotation
					JOINT RightToeBaseEnd
					{
						OFFSET 0.000000 -7.370728 0.000000
						CHANNELS 6 Xposition Yposition Zposition Zrotation Yrotation Xrotation
						End Site
						{
							OFFSET 0.000000 0.000000 0.100000
						}
					}
				}
				JOINT RightLegEnd
				{
					OFFSET 0.000000 0.000000 0.000000
					CHANNELS 6 Xposition Yposition Zposition Zrotation Yrotation Xrotation
					End Site
					{
						OFFSET 0.000000 0.000000 0.100000
					}
				}
			}
			JOINT RightUpLegEnd
			{
				OFFSET 0.000000 0.000000 0.000000
				CHANNELS 6 Xposition Yposition Zposition Zrotation Yrotation Xrotation
				End Site
				{
					OFFSET 0.000000 0.000000 0.099998
				}
			}
		}
	}
	JOINT LeftUpLeg
	{
		OFFSET 11.315674 0.000000 0.000000
		CHANNELS 6 Xposition Yposition Zposition Zrotation Yrotation Xrotation
		JOINT LeftLeg
		{
			OFFSET 0.000000 0.000000 -38.200329
			CHANNELS 6 Xposition Yposition Zposition Zrotation Yrotation Xrotation
			JOINT LeftFoot
			{
				OFFSET 0.000000 0.000000 -39.900856
				CHANNELS 6 Xposition Yposition Zposition Zrotation Yrotation Xrotation
				JOINT LeftToeBase
				{
					OFFSET 0.000000 -15.261658 0.000001
					CHANNELS 6 Xposition Yposition Zposition Zrotation Yrotation Xrotation
					JOINT LeftToeBaseEnd
					{
						OFFSET 0.000000 -7.539978 0.000000
						CHANNELS 6 Xposition Yposition Zposition Zrotation Yrotation Xrotation
						End Site
						{
							OFFSET 0.000000 0.000000 0.100000
						}
					}
				}
				JOINT LeftLegEnd
				{
					OFFSET 0.000000 0.000000 0.000000
					CHANNELS 6 Xposition Yposition Zposition Zrotation Yrotation Xrotation
					End Site
					{
						OFFSET 0.000000 0.000000 0.100000
					}
				}
			}
			JOINT LeftUpLegEnd
			{
				OFFSET 0.000000 0.000000 0.000000
				CHANNELS 6 Xposition Yposition Zposition Zrotation Yrotation Xrotation
				End Site
				{
					OFFSET 0.000000 0.000000 0.099998
				}
			}
		}
	}
}
MOTION
Frames: 2
Frame Time: 0.016667
18.269165 -5.056519 83.152954 -16.040641 7.517751 -18.853177 -0.000022 2.080041 8.814259 0.016877 -1.319223 13.230664 -0.000012 0.000023 8.844142 0.168807 0.732143 7.499416 0.000010 0.000015 11.682274 -2.043642 0.194492 11.196590 0.000011 0.000018 11.746693 -0.925794 -1.312293 6.221351 -0.000004 -0.000014 17.658279 6.271665 -9.767597 3.464976 -0.000006 0.000019 5.101509 10.532073 -2.948379 -5.039273 0.000014 0.000004 5.101584 -1.299837 2.011375 -20.827344 0.000012 -0.000002 11.655065 0.000000 0.000001 -0.000000 -2.625416 0.000011 11.175243 16.280101 -81.922033 0.939685 -0.000008 0.000008 10.434738 -19.276568 -17.392151 54.695554 0.000027 0.000015 29.628471 4.006901 1.647131 116.347860 -0.000053 0.000023 22.857681 -84.954692 33.759347 -36.168399 -2.867302 -2.944260 3.959518 32.220639 -14.232648 56.352858 -0.000038 0.000076 3.350401 -6.069826 4.961960 -11.486759 0.000037 -0.000017 3.756491 -4.107945 3.576641 -7.916124 0.000019 -0.000060 3.147339 0.000000 0.000001 -0.000001 -0.086742 -2.345200 10.030907 -6.197956 14.876191 12.781874 0.000006 0.000005 4.061100 0.527543 0.000085 0.000272 0.000009 -0.000018 3.248897 0.146007 0.000005 -0.000183 -0.000013 0.000008 2.639721 -0.000000 0.000001 -0.000001 0.104092 -0.006812 9.502945 -0.982918 14.924991 9.129924 0.000013 -0.000002 4.568724 0.579544 -0.000477 -0.027998 0.000010 -0.000014 3.655001 0.067543 0.000380 -0.020953 -0.000013 -0.000010 2.741267 -0.000000 -0.000000 -0.000001 0.086765 2.267432 8.921730 7.797015 16.712672 5.637651 -0.000012 -0.000009 4.061103 -1.183601 0.024433 -0.000182 -0.000007 0.000016 3.655009 -0.211654 -0.012766 0.039112 -0.000010 -0.000006 2.741238 0.000001 0.000000 0.000001 -0.173508 4.467282 7.976967 17.275073 18.639547 5.128678 0.000010 -0.000014 3.350384 -2.122532 0.034274 -0.001519 0.000002 0.000010 2.842757 -0.103429 -0.018430 -0.000083 0.000006 0.000011 2.639713 -0.000001 0.000001 0.000000 -0.000010 0.000040 -0.000028 0.000003 -0.000002 -0.000003 -0.000011 -0.000012 0.000006 0.000002 0.000000 -0.000002 2.625420 0.000011 11.175237 -18.468659 84.339073 -0.511246 0.000023 0.000025 10.813629 5.330895 41.547890 30.930102 0.000010 0.000000 28.724703 -12.952096 0.392398 98.114909 0.644325 0.328850 25.716148 58.390351 -43.795941 -28.777267 2.867325 -2.944260 3.959564 -33.272853 11.458595 61.322921 -0.000008 0.000027 3.350413 0.293527 -0.290491 -0.592897 0.000007 0.000010 3.756531 0.203490 -0.202029 -0.408771 -0.000002 0.000006 3.100002 -0.000000 0.000002 0.000001 0.086761 -2.345314 10.030884 -15.845969 -30.653732 31.951946 -0.000007 0.000002 4.061118 0.630001 -0.000094 0.000329 -0.000014 0.000021 3.248889 0.124989 -0.000006 -0.000782 -0.000012 0.000012 2.639723 -0.000002 -0.000000 -0.000000 -0.104097 -0.006786 9.502960 -11.103866 -33.953751 23.280119 -0.000016 -0.000024 4.568713 0.660746 -0.000013 -0.000330 0.000036 0.000042 3.654996 0.136060 -0.000017 0.002489 0.000008 0.000006 2.741225 -0.000001 -0.000001 -0.000000 -0.086784 2.267456 8.921722 -1.882779 -36.911288 10.836748 -0.000012 -0.000078 4.061100 -1.078305 0.024684 -0.000268 -0.000012 -0.000024 3.654979 -0.057786 -0.012780 -0.009018 0.000004 -0.000003 2.741244 0.000000 0.000001 0.000000 0.173500 4.467211 7.976993 8.917844 -34.831776 -0.496192 -0.000030 -0.000071 3.350420 -2.077571 -0.000002 -0.000028 -0.000030 -0.000090 2.842771 -0.065604 0.000001 -0.015629 -0.000030 -0.000136 2.639748 0.000002 0.000001 -0.000000 0.000015 -0.000000 0.000014 0.000001 -0.000003 0.000003 0.000020 0.000010 -0.000004 -0.000002 0.000000 0.000001 -11.289982 0.000015 0.000022 3.233068 13.498947 -0.867027 0.000009 0.000040 -38.200325 -0.534031 0.220785 22.461752 -0.000002 0.000015 -39.900879 -10.926506 1.504029 35.347930 0.000015 -15.261666 0.000004 0.207624 1.574103 -20.824415 -0.000004 -7.370728 -0.000001 0.000000 -0.000000 0.000002 0.000013 -0.000003 0.000002 0.000000 0.000001 0.000001 -0.000012 0.000010 -0.000003 -0.000002 -0.000001 0.000000 11.315655 0.000027 0.000015 14.618722 -22.678263 -7.324055 0.000018 -0.000018 -38.200352 0.233033 -0.260169 48.149306 -0.000035 0.000006 -39.900860 17.955353 10.996068 7.354130 0.000012 -15.261647 -0.000002 -1.993425 -0.767139 -20.135553 -0.000027 -7.539901 -0.000001 -0.000003 -0.000000 0.000000 -0.000037 0.000069 0.000001 -0.000001 0.000000 0.000001 0.000000 -0.000000 -0.000001 -0.000000 0.000001 0.000000 
17.443970 -4.992920 82.731911 -14.895360 7.394627 -18.700091 -0.000000 2.080056 8.814243 -0.003722 -1.046651 13.154071 -0.000003 -0.000035 8.844148 0.151391 0.873952 7.423946 0.000012 0.000007 11.682280 -2.650930 0.099509 10.979000 -0.000012 -0.000016 11.746721 -1.184587 -1.547597 6.250146 -0.000017 -0.000003 17.658264 5.990276 -11.182171 3.618804 -0.000008 -0.000017 5.101513 10.951153 -3.193607 -4.746489 -0.000012 0.000030 5.101558 -1.198229 1.855527 -20.874842 0.000005 -0.000003 11.655042 0.000000 -0.000000 0.000000 -2.625427 -0.000019 11.175238 15.533537 -81.549419 0.883514 0.000023 0.000015 10.434753 -17.540197 -17.417469 52.227940 0.000018 -0.000042 29.628462 3.706715 1.674472 117.278788 -0.000076 -0.000023 22.857681 -85.717638 34.520176 -36.445384 -2.867325 -2.944290 3.959549 32.220632 -14.232676 56.352862 -0.000031 0.000027 3.350386 -6.069820 4.961968 -11.486757 0.000000 0.000011 3.756540 -4.107963 3.576650 -7.916102 -0.000037 0.000001 3.147327 0.000001 0.000001 -0.000000 -0.086746 -2.345299 10.030952 -6.268534 14.482311 11.713202 0.000001 -0.000002 4.061119 0.527429 0.000075 0.000262 0.000002 0.000028 3.248895 0.144366 0.000000 -0.000181 0.000002 0.000077 2.639710 -0.000001 -0.000000 -0.000000 0.104088 -0.006764 9.502953 -1.044074 14.564805 8.289265 -0.000004 -0.000018 4.568733 0.578701 -0.000541 -0.027877 -0.000005 -0.000002 3.655008 0.066846 0.000399 -0.020646 0.000001 -0.000015 2.741247 0.000003 0.000001 -0.000000 0.086765 2.267452 8.921738 7.715232 16.377578 4.830064 0.000013 -0.000054 4.061094 -1.184196 0.000001 0.000323 0.000005 0.000007 3.655008 -0.211695 0.005171 0.039347 0.000018 0.000017 2.741230 -0.000003 -0.000001 -0.000001 -0.173477 4.467259 7.977020 17.175841 18.404203 4.393323 -0.000006 -0.000024 3.350410 -2.121202 -0.000166 -0.000251 -0.000001 -0.000007 2.842785 -0.102369 -0.000007 -0.000116 -0.000005 0.000009 2.639717 -0.000001 -0.000000 -0.000001 -0.000017 0.000009 0.000014 -0.000000 -0.000004 0.000001 0.000013 0.000008 0.000007 -0.000001 -0.000000 0.000001 2.625370 -0.000010 11.175247 -18.770789 84.016436 -0.490255 -0.000008 0.000057 10.813614 7.018757 36.844103 31.862730 -0.000031 0.000046 28.724819 -12.273742 0.596861 99.872536 0.644318 0.328831 25.716179 60.429013 -43.328753 -29.477273 2.867287 -2.944290 3.959602 -33.272840 11.458596 61.322210 -0.000008 -0.000027 3.350412 0.293520 -0.290495 -0.591481 0.000013 -0.000010 3.756522 0.203497 -0.202040 -0.409469 -0.000002 -0.000000 3.099997 -0.000001 -0.000001 -0.000003 0.086764 -2.345276 10.030914 -16.209784 -31.583806 31.584291 0.000035 -0.000018 4.061110 0.630101 -0.000096 0.000321 -0.000005 -0.000001 3.248868 0.125124 -0.000007 -0.000792 0.000003 -0.000010 2.639726 0.000002 -0.000000 0.000001 -0.104105 -0.006813 9.502914 -11.311897 -34.596158 22.925195 0.000001 -0.000011 4.568738 0.661262 0.000018 -0.000332 0.000012 0.000014 3.654996 0.136508 -0.000019 0.002462 0.000012 0.000010 2.741256 -0.000002 -0.000000 -0.000000 -0.086754 2.267426 8.921722 -1.910774 -37.058069 10.401825 0.000005 -0.000017 4.061082 -1.078285 -0.000007 0.000198 -0.000005 0.000008 3.654979 -0.057757 -0.000200 -0.009003 0.000003 -0.000057 2.741220 -0.000001 0.000000 0.000001 0.173485 4.467124 7.976986 8.926676 -34.573810 -0.934045 -0.000027 -0.000089 3.350415 -2.076606 0.000005 -0.000026 -0.000042 -0.000049 2.842771 -0.064835 0.000000 -0.015407 -0.000019 -0.000059 2.639746 -0.000001 -0.000000 -0.000001 -0.000003 0.000021 -0.000002 -0.000004 -0.000001 0.000001 0.000018 -0.000071 0.000008 0.000001 0.000003 -0.000004 -11.289932 0.000011 -0.000010 4.202748 13.762989 -0.033422 0.000010 0.000024 -38.200317 -0.529317 0.225810 23.063172 -0.000019 0.000001 -39.900887 -10.480598 1.296777 33.917777 -0.000009 -15.261637 0.000004 0.277646 1.522802 -20.735338 0.000009 -7.370728 0.000001 0.000000 0.000001 0.000001 0.000008 -0.000002 0.000001 0.000000 -0.000002 -0.000001 0.000001 0.000005 -0.000003 -0.000001 -0.000001 -0.000000 11.315681 0.000022 0.000023 13.843587 -22.947043 -8.066766 0.000023 -0.000064 -38.200336 0.276982 -0.319494 49.075783 -0.000009 -0.000102 -39.900864 17.203933 11.354651 7.212661 0.000012 -15.261713 0.000005 -2.022734 -0.839242 -20.030136 -0.000041 -7.539911 -0.000000 -0.000001 -0.000001 0.000001 -0.000033 -0.000003 0.000001 0.000001 -0.000001 0.000000 0.000004 -0.000003 0.000004 0.000001 0.000000 0.000000 
